<svg aria-hidden="true" style="position:absolute;width:0;height:0;overflow:hidden" xmlns="http://www.w3.org/2000/svg"><defs><symbol id="icon-form-arrow-right-48px" viewBox="0 0 32 32"><path d="M11.625 22.038 17.663 16l-6.038-6.038 1.863-1.863L21.389 16l-7.901 7.901-1.863-1.863z"/></symbol><symbol id="icon-coolicon" viewBox="0 0 20 32"><path fill="#fff" style="fill:var(--color1, #fff)" d="M16.609.573 1.182 16l15.427 15.427 2.573-2.571L6.324 16 19.182 3.144 16.609.573z"/></symbol><symbol id="icon-coolicon-2" viewBox="0 0 20 32"><path fill="#fff" style="fill:var(--color1, #fff)" d="M3.755 31.427 19.182 16 3.755.573 1.182 3.144 14.04 16 1.182 28.856l2.573 2.571z"/></symbol><symbol id="icon-twitter" viewBox="0 0 32 32"><path fill="#fff" style="fill:var(--color1, #fff)" d="M30.558 8.017a11.433 11.433 0 0 1-3.286.901 5.74 5.74 0 0 0 2.516-3.166 11.46 11.46 0 0 1-3.634 1.389 5.716 5.716 0 0 0-4.177-1.807 5.722 5.722 0 0 0-5.574 7.026A16.245 16.245 0 0 1 4.609 6.381a5.69 5.69 0 0 0-.775 2.877 5.719 5.719 0 0 0 2.546 4.763 5.7 5.7 0 0 1-2.592-.716l-.001.072a5.725 5.725 0 0 0 4.59 5.611 5.722 5.722 0 0 1-2.585.098 5.728 5.728 0 0 0 5.345 3.974 11.48 11.48 0 0 1-7.107 2.45c-.462 0-.917-.027-1.365-.08a16.192 16.192 0 0 0 8.772 2.571c10.525 0 16.281-8.719 16.281-16.281 0-.248-.006-.495-.017-.74a11.636 11.636 0 0 0 2.855-2.962z"/></symbol><symbol id="icon-instagram" viewBox="0 0 32 32"><path fill="#fff" style="fill:var(--color1, #fff)" d="M10.4 2.667h11.2a7.733 7.733 0 0 1 7.733 7.733v11.2a7.733 7.733 0 0 1-7.733 7.733H10.4A7.733 7.733 0 0 1 2.667 21.6V10.4A7.733 7.733 0 0 1 10.4 2.667zm-.267 2.666a4.8 4.8 0 0 0-4.8 4.8v11.733a4.8 4.8 0 0 0 4.8 4.8h11.733a4.8 4.8 0 0 0 4.8-4.8V10.133a4.8 4.8 0 0 0-4.8-4.8H10.133zm12.867 2a1.667 1.667 0 1 1 0 3.333 1.667 1.667 0 0 1 0-3.333zm-7 2a6.667 6.667 0 1 1 0 13.334 6.667 6.667 0 0 1 0-13.334zM16 12a4 4 0 1 0 0 8 4 4 0 0 0 0-8z"/></symbol><symbol id="icon-Facebook" viewBox="0 0 32 32"><path fill="#fff" style="fill:var(--color1, #fff)" d="M19.989 7.759h2.678V2.883c-.462-.066-2.051-.216-3.901-.216-3.861 0-6.505 2.539-6.505 7.205v4.295h-4.26v5.451h4.26v13.716h5.223V19.62h4.088l.649-5.451h-4.738v-3.755c.001-1.575.407-2.654 2.507-2.654z"/></symbol><symbol id="icon-arrow" viewBox="0 0 21 32"><path fill="#fff" style="fill:var(--color1, #fff)" d="m21.333 21.333-1.88-1.88L12 26.893V0H9.333v26.893l-7.44-7.453L0 21.333 10.667 32l10.667-10.667z"/></symbol><symbol id="icon-arrow-nav" viewBox="0 0 50 32"><path fill="#fbd784" style="fill:var(--color2, #fbd784)" d="m33 0-2.82 2.82L41.34 14H1v4h40.34L30.16 29.16 33 32l16-16L33 0z"/></symbol><symbol id="icon-cart" viewBox="0 0 32 32"><path fill="#fff" style="fill:var(--color1, #fff)" d="m24.902 26.143-7.62-7.621a8.001 8.001 0 1 1 .53-12.632 8 8 0 0 1 1.357 10.746l7.62 7.621-1.887 1.887zM12.646 6.667a5.332 5.332 0 0 0-2.121 10.227 5.333 5.333 0 0 0 6.011-8.541l.807.8-.925-.923a5.3 5.3 0 0 0-3.771-1.563z"/></symbol></defs></svg>